<?xml version="1.0" encoding="utf-8"?>
<svg width="512.0879px" height="512px" viewBox="0 0 512.0879 512" version="1.1" xmlns:xlink="http://www.w3.org/1999/xlink" xmlns="http://www.w3.org/2000/svg">
  <defs>
    <path d="M0.0878919 0L512.088 0L512.088 512L0.0878919 512L0.0878919 0Z" id="path_1" />
    <clipPath id="mask_1">
      <use xlink:href="#path_1" />
    </clipPath>
  </defs>
  <g id="order">
    <path d="M0.0878919 0L512.088 0L512.088 512L0.0878919 512L0.0878919 0Z" id="Background" fill="#FFFFFF" fill-opacity="0" fill-rule="evenodd" stroke="none" />
    <path d="M74.0878 1.09999C72.7878 1.69999 70.7878 2.89999 69.6878 3.79999C66.7878 6.39999 2.58778 103.1 1.28778 106.9C-0.412215 111.6 -0.412215 418.6 1.18778 424.5C3.98778 434.4 13.8878 444.2 24.0878 446.9C27.4878 447.8 55.1878 448 137.288 447.8C245.288 447.5 245.988 447.5 248.688 445.4C253.988 441.5 255.588 438.3 255.588 432C255.588 425.7 253.988 422.5 248.688 418.6C245.988 416.5 245.288 416.5 138.988 416.2L32.0878 416L32.0878 272L32.0878 128L96.0878 128L159.988 128L160.288 170.9C160.588 212.5 160.688 213.9 162.688 216.6C165.788 220.8 169.388 223.1 173.788 223.7C177.088 224.1 182.188 222.8 200.988 216.5L224.088 208.8L247.188 216.5C265.988 222.8 271.088 224.1 274.388 223.7C278.788 223.1 282.388 220.8 285.488 216.6C287.488 213.9 287.588 212.5 287.888 170.9L288.188 128L352.088 128L416.088 128L416.288 186.9C416.588 244.7 416.588 245.9 418.688 248.6C422.588 253.9 425.788 255.5 432.088 255.5C438.388 255.5 441.588 253.9 445.488 248.6C447.588 245.9 447.588 244.7 447.888 178.7C448.088 130.6 447.888 110.4 446.988 107.5C445.588 102.4 380.588 5.29999 376.788 2.49999C373.988 0.499993 373.188 0.499993 225.288 0.299993C128.588 0.199993 75.6878 0.499993 74.0878 1.09999L74.0878 1.09999ZM172.588 35.2C172.288 37 169.888 51.3 167.288 67L162.488 95.5L104.288 95.8L46.0878 96L67.2878 64L88.5878 32.1L130.888 32L173.188 32L172.588 35.2L172.588 35.2ZM247.288 61C249.888 76.7 252.288 91 252.588 92.7L253.188 96L224.088 96L194.888 96L195.488 93.2C195.788 91.7 198.088 77.9 200.688 62.5C203.188 47.1 205.388 33.9 205.588 33.2C205.988 32.2 210.188 32 224.288 32.2L242.488 32.5L247.288 61L247.288 61ZM380.888 64L402.088 96L343.888 95.8L285.688 95.5L280.888 67C278.288 51.3 275.888 37 275.588 35.2L274.988 32L317.288 32L359.588 32.1L380.888 64L380.888 64ZM256.088 156.9L256.088 185.9L241.388 180.9C233.288 178.2 225.488 176 224.088 176C222.688 176 214.888 178.2 206.788 180.9L192.088 185.9L192.088 156.9L192.088 128L224.088 128L256.088 128L256.088 156.9L256.088 156.9ZM381.088 289.6C356.188 294.1 331.688 307.9 315.888 326.3C278.788 369.4 278.788 430.6 315.888 473.7C336.188 497.3 368.488 512 400.088 512C461.488 512 512.088 461.4 512.088 400C512.088 345.7 472.488 298.9 418.588 289.6C407.788 287.7 391.388 287.7 381.088 289.6L381.088 289.6ZM420.888 323C448.988 330.9 469.888 352.3 477.688 381C480.388 390.9 480.188 410.1 477.288 420.3C469.088 448.9 447.988 469.7 419.088 477.6C410.088 480.1 390.088 480.1 381.088 477.6C366.888 473.8 355.388 467.3 345.288 457.6C334.088 446.9 327.188 435.4 322.888 420.3C319.988 410.1 319.788 390.9 322.488 381C326.288 366.8 332.788 355.3 342.488 345.2C355.088 332.1 369.588 324.3 387.888 321C395.388 319.6 412.688 320.7 420.888 323L420.888 323ZM393.588 353.4C389.888 355.1 386.588 358.6 385.188 362.3C383.488 366.7 383.788 402.3 385.488 406.3C386.288 408.1 395.388 417.9 405.688 428.2C425.988 448.3 427.388 449.1 435.788 447.5C440.688 446.6 446.688 440.6 447.588 435.7C449.188 427.5 448.088 425.7 431.588 409L416.188 393.5L415.888 377.8C415.588 360.8 415.088 359.4 408.888 354.7C405.488 352.2 397.588 351.5 393.588 353.4L393.588 353.4Z" id="Group" fill="#417394" stroke="none" />
  </g>
</svg>