<?xml version="1.0" encoding="utf-8"?>
<svg width="512px" height="512px" viewBox="0 0 512 512" version="1.1" xmlns:xlink="http://www.w3.org/1999/xlink" xmlns="http://www.w3.org/2000/svg">
  <defs>
    <path d="M0 0L512 0L512 512L0 512L0 0Z" id="path_1" />
    <clipPath id="mask_1">
      <use xlink:href="#path_1" />
    </clipPath>
  </defs>
  <g id="pending">
    <path d="M0 0L512 0L512 512L0 512L0 0Z" id="Background" fill="#FFFFFF" fill-opacity="0" fill-rule="evenodd" stroke="none" />
    <path d="M124.7 1.39999C119.3 3.39999 113.6 7.39999 110.7 11.2C106.6 16.7 35.8999 139.9 34.3999 144.2C33.1999 147.6 32.9999 173.7 32.9999 314.4C32.9999 489 32.8999 485.2 37.2999 493.6C39.9999 498.8 47.7999 506 53.7999 508.8L59.4999 511.5L256 511.5L452.5 511.5L458.2 508.8C464.2 506 472 498.8 474.7 493.6C479.1 485.2 479 489.1 479 313.2C479 154.4 478.9 145.7 477.2 142.2C473.1 133.7 402.4 12.3 399.9 9.49999C398.4 7.79999 394.7 5.09999 391.8 3.39999L386.5 0.499992L257.5 0.299992C150.7 0.0999924 127.8 0.299992 124.7 1.39999L124.7 1.39999ZM241 78.5L241 127L160 127C115.5 127 78.9999 126.7 78.9999 126.4C78.9999 126.1 91.3999 104.3 106.6 77.9L134.2 30L187.6 30L241 30L241 78.5L241 78.5ZM404.9 76.9C419.8 102.7 432.2 124.5 432.6 125.4C433.2 126.9 426.7 127 352.6 127L272 127L272 78.5L272 30L324.9 30L377.8 30L404.9 76.9L404.9 76.9ZM449 317.5C449 476.7 449 478 447 480C445 482 443.7 482 256 482C68.3 482 66.9999 482 64.9999 480C62.9999 478 62.9999 476.7 62.9999 317.5L62.9999 157L256 157L449 157L449 317.5L449 317.5Z" id="Shape" fill="#417394" fill-rule="evenodd" stroke="none" />
    <path d="M306 267.6C304.6 268.5 288.2 284.5 269.5 303.1L235.5 337L222 323.4C214.6 316 207.3 309.2 205.8 308.4C197.9 304.3 187 309.5 185 318.5C183.3 325.9 184.7 328 206.3 349.8C217.4 361 227.7 370.8 229.2 371.6C232.7 373.4 239.3 373.4 242.8 371.6C244.3 370.8 263.8 351.8 286.2 329.3C321.1 294.3 327 287.9 327.9 284.4C329.6 278 327.1 271.7 321.3 267.9C317.7 265.5 309.4 265.4 306 267.6L306 267.6Z" id="Shape" fill="#417394" stroke="none" />
  </g>
</svg>